<mxfile host="app.diagrams.net" modified="2022-09-07T19:38:26.657Z" agent="5.0 (Windows NT 10.0; Win64; x64) AppleWebKit/537.36 (KHTML, like Gecko) Chrome/105.0.0.0 Safari/537.36" etag="eseE0HbzDZ5uchUQGEJb" version="20.3.0" type="github">
  <diagram id="C5RBs43oDa-KdzZeNtuy" name="Page-1">
    <mxGraphModel dx="1583" dy="563" grid="1" gridSize="10" guides="1" tooltips="1" connect="1" arrows="1" fold="1" page="1" pageScale="1" pageWidth="827" pageHeight="1169" math="0" shadow="0">
      <root>
        <mxCell id="WIyWlLk6GJQsqaUBKTNV-0" />
        <mxCell id="WIyWlLk6GJQsqaUBKTNV-1" parent="WIyWlLk6GJQsqaUBKTNV-0" />
        <mxCell id="WIyWlLk6GJQsqaUBKTNV-2" value="" style="rounded=0;html=1;jettySize=auto;orthogonalLoop=1;fontSize=11;endArrow=block;endFill=0;endSize=8;strokeWidth=1;shadow=0;labelBackgroundColor=none;edgeStyle=orthogonalEdgeStyle;" parent="WIyWlLk6GJQsqaUBKTNV-1" source="WIyWlLk6GJQsqaUBKTNV-3" edge="1">
          <mxGeometry relative="1" as="geometry">
            <mxPoint x="220" y="130" as="targetPoint" />
          </mxGeometry>
        </mxCell>
        <mxCell id="WIyWlLk6GJQsqaUBKTNV-3" value="PRACTICA&amp;nbsp; 1&lt;br&gt;EJERCICIO 2" style="rounded=1;whiteSpace=wrap;html=1;fontSize=12;glass=0;strokeWidth=1;shadow=0;" parent="WIyWlLk6GJQsqaUBKTNV-1" vertex="1">
          <mxGeometry x="160" y="60" width="120" height="40" as="geometry" />
        </mxCell>
        <mxCell id="qU3WKGa9yfcmntBesCyl-0" value="DESDE= &quot; A = 0&quot;&lt;br&gt;&amp;nbsp;HASTA = &quot;A&amp;lt;=9&quot;&lt;span style=&quot;white-space: pre;&quot;&gt;	&lt;/span&gt;&lt;br&gt;INCREMENTO= 1" style="shape=hexagon;perimeter=hexagonPerimeter2;whiteSpace=wrap;html=1;fixedSize=1;" vertex="1" parent="WIyWlLk6GJQsqaUBKTNV-1">
          <mxGeometry x="145" y="240" width="150" height="80" as="geometry" />
        </mxCell>
        <mxCell id="qU3WKGa9yfcmntBesCyl-7" value="" style="edgeStyle=orthogonalEdgeStyle;rounded=0;orthogonalLoop=1;jettySize=auto;html=1;" edge="1" parent="WIyWlLk6GJQsqaUBKTNV-1" source="qU3WKGa9yfcmntBesCyl-4" target="qU3WKGa9yfcmntBesCyl-0">
          <mxGeometry relative="1" as="geometry" />
        </mxCell>
        <mxCell id="qU3WKGa9yfcmntBesCyl-4" value="A = 0;&lt;br&gt;B = 0;" style="rounded=0;whiteSpace=wrap;html=1;" vertex="1" parent="WIyWlLk6GJQsqaUBKTNV-1">
          <mxGeometry x="160" y="130" width="120" height="60" as="geometry" />
        </mxCell>
        <mxCell id="qU3WKGa9yfcmntBesCyl-5" value="SE INICIALIZAN EN 0 LOS CONTADORES" style="text;html=1;align=center;verticalAlign=middle;resizable=0;points=[];autosize=1;strokeColor=none;fillColor=none;" vertex="1" parent="WIyWlLk6GJQsqaUBKTNV-1">
          <mxGeometry x="275" y="140" width="250" height="30" as="geometry" />
        </mxCell>
        <mxCell id="qU3WKGa9yfcmntBesCyl-25" value="" style="edgeStyle=orthogonalEdgeStyle;rounded=0;orthogonalLoop=1;jettySize=auto;html=1;" edge="1" parent="WIyWlLk6GJQsqaUBKTNV-1" target="qU3WKGa9yfcmntBesCyl-24">
          <mxGeometry relative="1" as="geometry">
            <mxPoint x="500" y="360" as="sourcePoint" />
            <Array as="points">
              <mxPoint x="540" y="360" />
              <mxPoint x="540" y="250" />
            </Array>
          </mxGeometry>
        </mxCell>
        <mxCell id="qU3WKGa9yfcmntBesCyl-24" value="" style="shape=waypoint;sketch=0;size=6;pointerEvents=1;points=[];fillColor=default;resizable=0;rotatable=0;perimeter=centerPerimeter;snapToPoint=1;rounded=1;" vertex="1" parent="WIyWlLk6GJQsqaUBKTNV-1">
          <mxGeometry x="260" y="230" width="40" height="40" as="geometry" />
        </mxCell>
        <mxCell id="qU3WKGa9yfcmntBesCyl-26" value="" style="edgeStyle=orthogonalEdgeStyle;rounded=0;orthogonalLoop=1;jettySize=auto;html=1;" edge="1" parent="WIyWlLk6GJQsqaUBKTNV-1" target="qU3WKGa9yfcmntBesCyl-29">
          <mxGeometry relative="1" as="geometry">
            <mxPoint x="219.99999999999977" y="320" as="sourcePoint" />
          </mxGeometry>
        </mxCell>
        <mxCell id="qU3WKGa9yfcmntBesCyl-28" value="" style="edgeStyle=orthogonalEdgeStyle;rounded=0;orthogonalLoop=1;jettySize=auto;html=1;" edge="1" parent="WIyWlLk6GJQsqaUBKTNV-1" source="qU3WKGa9yfcmntBesCyl-29" target="qU3WKGa9yfcmntBesCyl-32">
          <mxGeometry relative="1" as="geometry" />
        </mxCell>
        <mxCell id="qU3WKGa9yfcmntBesCyl-29" value="DISPLAY-DECENAS_PUTVAL(A)" style="rounded=0;whiteSpace=wrap;html=1;" vertex="1" parent="WIyWlLk6GJQsqaUBKTNV-1">
          <mxGeometry x="155" y="360" width="130" height="60" as="geometry" />
        </mxCell>
        <mxCell id="qU3WKGa9yfcmntBesCyl-30" value="" style="shape=waypoint;sketch=0;size=6;pointerEvents=1;points=[];fillColor=default;resizable=0;rotatable=0;perimeter=centerPerimeter;snapToPoint=1;rounded=0;" vertex="1" parent="WIyWlLk6GJQsqaUBKTNV-1">
          <mxGeometry x="120" y="260" width="40" height="40" as="geometry" />
        </mxCell>
        <mxCell id="qU3WKGa9yfcmntBesCyl-31" value="" style="edgeStyle=orthogonalEdgeStyle;rounded=0;orthogonalLoop=1;jettySize=auto;html=1;" edge="1" parent="WIyWlLk6GJQsqaUBKTNV-1" source="qU3WKGa9yfcmntBesCyl-32" target="qU3WKGa9yfcmntBesCyl-34">
          <mxGeometry relative="1" as="geometry" />
        </mxCell>
        <mxCell id="qU3WKGa9yfcmntBesCyl-32" value="DESDE= &quot; B = 0&quot;&lt;br&gt;&amp;nbsp;HASTA = &quot;B&amp;lt;=9&quot;&lt;span style=&quot;white-space: pre;&quot;&gt;	&lt;/span&gt;&lt;br&gt;INCREMENTO= 1" style="shape=hexagon;perimeter=hexagonPerimeter2;whiteSpace=wrap;html=1;fixedSize=1;" vertex="1" parent="WIyWlLk6GJQsqaUBKTNV-1">
          <mxGeometry x="145" y="470" width="150" height="80" as="geometry" />
        </mxCell>
        <mxCell id="qU3WKGa9yfcmntBesCyl-33" value="" style="edgeStyle=orthogonalEdgeStyle;rounded=0;orthogonalLoop=1;jettySize=auto;html=1;" edge="1" parent="WIyWlLk6GJQsqaUBKTNV-1" source="qU3WKGa9yfcmntBesCyl-34" target="qU3WKGa9yfcmntBesCyl-35">
          <mxGeometry relative="1" as="geometry">
            <Array as="points">
              <mxPoint x="80" y="630" />
              <mxPoint x="80" y="280" />
            </Array>
          </mxGeometry>
        </mxCell>
        <mxCell id="qU3WKGa9yfcmntBesCyl-46" value="" style="edgeStyle=orthogonalEdgeStyle;rounded=0;orthogonalLoop=1;jettySize=auto;html=1;" edge="1" parent="WIyWlLk6GJQsqaUBKTNV-1" source="qU3WKGa9yfcmntBesCyl-34" target="qU3WKGa9yfcmntBesCyl-45">
          <mxGeometry relative="1" as="geometry">
            <Array as="points">
              <mxPoint x="350" y="635" />
              <mxPoint x="350" y="360" />
            </Array>
          </mxGeometry>
        </mxCell>
        <mxCell id="qU3WKGa9yfcmntBesCyl-34" value="DISPLAY-UNIDADES_PUTVAL(B)" style="rounded=0;whiteSpace=wrap;html=1;" vertex="1" parent="WIyWlLk6GJQsqaUBKTNV-1">
          <mxGeometry x="155" y="610" width="130" height="50" as="geometry" />
        </mxCell>
        <mxCell id="qU3WKGa9yfcmntBesCyl-35" value="" style="shape=waypoint;sketch=0;size=6;pointerEvents=1;points=[];fillColor=default;resizable=0;rotatable=0;perimeter=centerPerimeter;snapToPoint=1;rounded=0;" vertex="1" parent="WIyWlLk6GJQsqaUBKTNV-1">
          <mxGeometry x="120" y="260" width="40" height="40" as="geometry" />
        </mxCell>
        <mxCell id="qU3WKGa9yfcmntBesCyl-36" value="" style="edgeStyle=orthogonalEdgeStyle;rounded=0;orthogonalLoop=1;jettySize=auto;html=1;" edge="1" parent="WIyWlLk6GJQsqaUBKTNV-1" source="qU3WKGa9yfcmntBesCyl-37" target="qU3WKGa9yfcmntBesCyl-39">
          <mxGeometry relative="1" as="geometry" />
        </mxCell>
        <mxCell id="qU3WKGa9yfcmntBesCyl-37" value="WAIT(500)" style="rounded=1;whiteSpace=wrap;html=1;" vertex="1" parent="WIyWlLk6GJQsqaUBKTNV-1">
          <mxGeometry x="380" y="330" width="120" height="60" as="geometry" />
        </mxCell>
        <mxCell id="qU3WKGa9yfcmntBesCyl-38" value="" style="shape=waypoint;sketch=0;size=6;pointerEvents=1;points=[];fillColor=default;resizable=0;rotatable=0;perimeter=centerPerimeter;snapToPoint=1;" vertex="1" parent="WIyWlLk6GJQsqaUBKTNV-1">
          <mxGeometry x="414" y="310" width="40" height="40" as="geometry" />
        </mxCell>
        <mxCell id="qU3WKGa9yfcmntBesCyl-39" value="FIN" style="rounded=1;whiteSpace=wrap;html=1;" vertex="1" parent="WIyWlLk6GJQsqaUBKTNV-1">
          <mxGeometry x="380" y="450" width="120" height="60" as="geometry" />
        </mxCell>
        <mxCell id="qU3WKGa9yfcmntBesCyl-45" value="" style="shape=waypoint;sketch=0;size=6;pointerEvents=1;points=[];fillColor=default;resizable=0;rotatable=0;perimeter=centerPerimeter;snapToPoint=1;rounded=0;" vertex="1" parent="WIyWlLk6GJQsqaUBKTNV-1">
          <mxGeometry x="360" y="340" width="40" height="40" as="geometry" />
        </mxCell>
      </root>
    </mxGraphModel>
  </diagram>
</mxfile>
